<svg height="436pt" viewBox="-51 0 436 436.90667" width="436pt" xmlns="http://www.w3.org/2000/svg"><path d="m41.546875 222.617188c-3.761719 0-6.8125-3.039063-6.828125-6.796876l-.113281-27.078124c-.011719-3.769532 3.027343-6.839844 6.800781-6.855469h.027344c3.761718 0 6.8125 3.035156 6.828125 6.796875l.113281 27.074218c.011719 3.769532-3.027344 6.839844-6.800781 6.859376-.007813 0-.019531 0-.027344 0zm0 0"/><path d="m286.921875 157.011719c-3.769531 0-6.820313-3.042969-6.828125-6.8125l-.101562-54.613281c-3.453126-56.472657-60.597657-81.933594-115.699219-81.933594-55.097657 0-112.246094 25.460937-115.714844 82.335937l-.085937 54.210938c-.007813 3.769531-3.058594 6.8125-6.828126 6.8125-.003906 0-.003906 0-.011718 0-3.765625-.003907-6.820313-3.070313-6.8125-6.839844l.101562-54.613281c4.011719-66.136719 67.859375-95.558594 129.351563-95.558594 61.492187 0 125.339843 29.421875 129.339843 95.160156l.113282 55.011719c.007812 3.769531-3.046875 6.835937-6.8125 6.839844-.007813 0-.007813 0-.011719 0zm0 0"/><path d="m287.039062 222.617188c-3.765624 0-6.820312-3.050782-6.824218-6.816407l-.039063-24.070312c-.007812-3.769531 3.042969-6.828125 6.8125-6.835938h.011719c3.765625 0 6.820312 3.050781 6.828125 6.816407l.039063 24.066406c.007812 3.773437-3.046876 6.832031-6.8125 6.839844-.007813 0-.007813 0-.015626 0zm0 0"/><path d="m269.980469 204.605469c-3.40625 0-6.355469-2.542969-6.773438-6.011719-.449219-3.742188 2.21875-7.144531 5.964844-7.59375 10.261719-1.238281 18-9.976562 18-20.332031 0-10.675781-8-19.445313-18.613281-20.398438-3.75-.339843-6.523438-3.65625-6.183594-7.414062.339844-3.753907 3.738281-6.460938 7.414062-6.1875 17.691407 1.597656 31.039063 16.210937 31.039063 34 0 17.257812-12.90625 31.828125-30.027344 33.882812-.273437.035157-.546875.054688-.820312.054688zm0 0"/><path d="m58.699219 204.613281c-.257813 0-.527344-.011719-.800781-.046875-17.179688-2.003906-30.136719-16.578125-30.136719-33.898437 0-17.550781 13.679687-32.488281 31.144531-34.003907 3.660156-.359374 7.066406 2.449219 7.394531 6.210938.324219 3.753906-2.453125 7.0625-6.207031 7.386719-10.472656.910156-18.679688 9.875-18.679688 20.40625 0 10.390625 7.765626 19.136719 18.074219 20.339843 3.738281.4375 6.425781 3.824219 5.984375 7.570313-.40625 3.476563-3.351562 6.035156-6.773437 6.035156zm0 0"/><path d="m61.964844 222.617188c-3.644532 0-6.671875-2.886719-6.8125-6.566407-.058594-1.464843-.085938-2.945312-.085938-4.425781v-92.53125c0-20.496094 16.675782-37.171875 37.171875-37.171875.632813 0 1.261719.085937 1.867188.257813l17.027343 4.839843c34.773438 9.878907 71.535157 9.886719 106.320313 0l17.027344-4.839843c.605469-.175782 1.234375-.257813 1.867187-.257813 20.5 0 37.171875 16.675781 37.171875 37.171875v92.53125c0 1.480469-.027343 2.957031-.085937 4.425781-.140625 3.769531-3.339844 6.867188-7.085938 6.554688-3.765625-.140625-6.699218-3.3125-6.554687-7.082031.046875-1.292969.074219-2.589844.074219-3.894532v-92.535156c0-12.671875-10.074219-23.035156-22.628907-23.503906l-16.050781 4.5625c-37.226562 10.582031-76.558594 10.582031-113.789062 0l-16.050782-4.5625c-12.554687.46875-22.628906 10.832031-22.628906 23.503906v92.53125c0 1.308594.027344 2.609375.074219 3.902344.148437 3.765625-2.785157 6.9375-6.554688 7.082031-.09375.007813-.175781.007813-.273437.007813zm0 0"/><path d="m116.507812 160.425781c0 5.65625-4.585937 10.242188-10.242187 10.242188s-10.238281-4.585938-10.238281-10.242188 4.582031-10.238281 10.238281-10.238281 10.242187 4.582031 10.242187 10.238281zm0 0"/><path d="m232.558594 160.425781c0 5.65625-4.582032 10.242188-10.238282 10.242188s-10.242187-4.585938-10.242187-10.242188 4.585937-10.238281 10.242187-10.238281 10.238282 4.582031 10.238282 10.238281zm0 0"/><path d="m191.601562 225.28125h-54.613281c-3.773437 0-6.828125-3.058594-6.828125-6.828125s3.054688-6.828125 6.828125-6.828125h54.613281c3.773438 0 6.824219 3.058594 6.824219 6.828125s-3.050781 6.828125-6.824219 6.828125zm0 0"/><path d="m316.332031 436.90625h-297.253906c-10.269531 0-18.625-8.355469-18.625-18.625v-188.027344c0-10.269531 8.355469-18.628906 18.625-18.628906h297.253906c10.277344 0 18.628907 8.359375 18.628907 18.628906v188.027344c0 10.269531-8.355469 18.625-18.628907 18.625zm-297.253906-211.625c-2.738281 0-4.972656 2.230469-4.972656 4.972656v188.027344c0 2.742188 2.234375 4.972656 4.972656 4.972656h297.253906c2.742188 0 4.976563-2.230468 4.976563-4.972656v-188.027344c0-2.742187-2.234375-4.972656-4.976563-4.972656zm0 0"/><path d="m191.601562 324.265625c0 13.195313-10.699218 23.894531-23.894531 23.894531-13.195312 0-23.894531-10.699218-23.894531-23.894531s10.699219-23.890625 23.894531-23.890625c13.195313 0 23.894531 10.695312 23.894531 23.890625zm0 0"/></svg>