<svg viewBox="0 0 530 530" width="436pt" height="436pt" xmlns="http://www.w3.org/2000/svg">
        <path d="m388 140h-384c-2.207031 0-4-1.792969-4-4v-44c0-13.230469 10.769531-24 24-24h344c13.230469 0 24 10.769531 24 24v44c0 2.207031-1.792969 4-4 4zm-380-8h376v-40c0-8.824219-7.175781-16-16-16h-344c-8.824219 0-16 7.175781-16 16zm0 0"></path>
        <path d="m40 120c-8.824219 0-16-7.175781-16-16s7.175781-16 16-16 16 7.175781 16 16-7.175781 16-16 16zm0-24c-4.40625 0-8 3.585938-8 8s3.59375 8 8 8 8-3.585938 8-8-3.59375-8-8-8zm0 0"></path>
        <path d="m80 120c-8.824219 0-16-7.175781-16-16s7.175781-16 16-16 16 7.175781 16 16-7.175781 16-16 16zm0-24c-4.40625 0-8 3.585938-8 8s3.59375 8 8 8 8-3.585938 8-8-3.59375-8-8-8zm0 0"></path>
        <path d="m396 24h-32c-2.207031 0-4-1.792969-4-4s1.792969-4 4-4h32c2.207031 0 4 1.792969 4 4s-1.792969 4-4 4zm0 0"></path>
        <path d="m380 40c-2.207031 0-4-1.792969-4-4v-32c0-2.207031 1.792969-4 4-4s4 1.792969 4 4v32c0 2.207031-1.792969 4-4 4zm0 0"></path>
        <path d="m452 76h-32c-2.207031 0-4-1.792969-4-4s1.792969-4 4-4h32c2.207031 0 4 1.792969 4 4s-1.792969 4-4 4zm0 0"></path>
        <path d="m436 92c-2.207031 0-4-1.792969-4-4v-32c0-2.207031 1.792969-4 4-4s4 1.792969 4 4v32c0 2.207031-1.792969 4-4 4zm0 0"></path>
        <path d="m48 440h-16c-2.207031 0-4-1.792969-4-4s1.792969-4 4-4h16c2.207031 0 4 1.792969 4 4s-1.792969 4-4 4zm0 0"></path>
        <path d="m144 440h-80c-2.207031 0-4-1.792969-4-4s1.792969-4 4-4h80c2.207031 0 4 1.792969 4 4s-1.792969 4-4 4zm0 0"></path>
        <path d="m308 44h-16c-2.207031 0-4-1.792969-4-4s1.792969-4 4-4h16c2.207031 0 4 1.792969 4 4s-1.792969 4-4 4zm0 0"></path>
        <path d="m276 44h-160c-2.207031 0-4-1.792969-4-4s1.792969-4 4-4h160c2.207031 0 4 1.792969 4 4s-1.792969 4-4 4zm0 0"></path>
        <path d="m212 356h-32c-6.617188 0-12-5.382812-12-12v-8c0-6.617188 5.382812-12 12-12h32c6.617188 0 12 5.382812 12 12v8c0 6.617188-5.382812 12-12 12zm-32-24c-2.207031 0-4 1.800781-4 4v8c0 2.199219 1.792969 4 4 4h32c2.207031 0 4-1.800781 4-4v-8c0-2.199219-1.792969-4-4-4zm0 0"></path>
        <path d="m212 440h-32c-6.617188 0-12-5.382812-12-12v-8c0-6.617188 5.382812-12 12-12h32c6.617188 0 12 5.382812 12 12v8c0 6.617188-5.382812 12-12 12zm-32-24c-2.207031 0-4 1.800781-4 4v8c0 2.199219 1.792969 4 4 4h32c2.207031 0 4-1.800781 4-4v-8c0-2.199219-1.792969-4-4-4zm0 0"></path>
        <path d="m476 488h-272c-6.617188 0-12-5.382812-12-12v-24c0-2.207031 1.792969-4 4-4s4 1.792969 4 4v24c0 2.199219 1.792969 4 4 4h272c2.207031 0 4-1.800781 4-4v-188c0-2.199219-1.792969-4-4-4h-272c-2.207031 0-4 1.800781-4 4v24c0 2.207031-1.792969 4-4 4s-4-1.792969-4-4v-24c0-6.617188 5.382812-12 12-12h272c6.617188 0 12 5.382812 12 12v188c0 6.617188-5.382812 12-12 12zm0 0"></path>
        <path d="m196 400c-2.207031 0-4-1.792969-4-4v-28c0-2.207031 1.792969-4 4-4s4 1.792969 4 4v28c0 2.207031-1.792969 4-4 4zm0 0"></path>
        <path d="m180 396h-156c-13.230469 0-24-10.769531-24-24v-236c0-2.207031 1.792969-4 4-4h384c2.207031 0 4 1.792969 4 4v128c0 2.207031-1.792969 4-4 4s-4-1.792969-4-4v-124h-376v232c0 8.824219 7.175781 16 16 16h156c2.207031 0 4 1.792969 4 4s-1.792969 4-4 4zm0 0"></path>

        <path d="m44 176h80v80h-80zm0 0" fill="#ff5252"></path>
        <path d="m124 260h-80c-2.207031 0-4-1.792969-4-4v-80c0-2.207031 1.792969-4 4-4h80c2.207031 0 4 1.792969 4 4v80c0 2.207031-1.792969 4-4 4zm-76-8h72v-72h-72zm0 0"></path>
        <path d="m124 284h-80c-2.207031 0-4-1.792969-4-4s1.792969-4 4-4h80c2.207031 0 4 1.792969 4 4s-1.792969 4-4 4zm0 0"></path>
        <path d="m156 176h80v80h-80zm0 0" fill="#ffd740"></path>
        <path d="m236 260h-80c-2.207031 0-4-1.792969-4-4v-80c0-2.207031 1.792969-4 4-4h80c2.207031 0 4 1.792969 4 4v80c0 2.207031-1.792969 4-4 4zm-76-8h72v-72h-72zm0 0"></path>
        <path d="m180 284h-24c-2.207031 0-4-1.792969-4-4s1.792969-4 4-4h24c2.207031 0 4 1.792969 4 4s-1.792969 4-4 4zm0 0"></path>
        <path d="m268 176h80v80h-80zm0 0" fill="#40c4ff"></path>
        <path d="m348 260h-80c-2.207031 0-4-1.792969-4-4v-80c0-2.207031 1.792969-4 4-4h80c2.207031 0 4 1.792969 4 4v80c0 2.207031-1.792969 4-4 4zm-76-8h72v-72h-72zm0 0"></path>
        <path d="m348 284h-80c-2.207031 0-4-1.792969-4-4s1.792969-4 4-4h80c2.207031 0 4 1.792969 4 4s-1.792969 4-4 4zm0 0"></path>
        <path d="m124 380c-2.207031 0-4-1.792969-4-4v-52h-72v52c0 2.207031-1.792969 4-4 4s-4-1.792969-4-4v-56c0-2.207031 1.792969-4 4-4h80c2.207031 0 4 1.792969 4 4v56c0 2.207031-1.792969 4-4 4zm0 0"></path>
        <path d="m388 442c-.695312 0-1.390625-.175781-2.015625-.542969l-48-28c-1.230469-.722656-1.984375-2.03125-1.984375-3.457031v-56c0-1.425781.753906-2.734375 1.984375-3.457031l48-28c1.238281-.734375 2.792969-.734375 4.03125 0l48 28c1.230469.722656 1.984375 2.03125 1.984375 3.457031v56c0 1.425781-.753906 2.734375-1.984375 3.457031l-48 28c-.625.367188-1.320313.542969-2.015625.542969zm-44-34.296875 44 25.664063 44-25.664063v-51.40625l-44-25.664063-44 25.664063zm0 0"></path>
        <path d="m324 354h-64v56h64" fill="#4db6ac"></path>
        <path d="m324 414h-64c-2.207031 0-4-1.792969-4-4v-56c0-2.207031 1.792969-4 4-4h64c2.207031 0 4 1.792969 4 4s-1.792969 4-4 4h-60v48h60c2.207031 0 4 1.792969 4 4s-1.792969 4-4 4zm0 0"></path>
        <path d="m388 442c-.6875 0-1.375-.175781-1.992188-.527344-1.238281-.710937-2.007812-2.039062-2.007812-3.472656v-56c0-1.425781.753906-2.734375 1.984375-3.457031l48-28c1.230469-.726563 2.769531-.726563 4.007813-.015625 1.238281.710937 2.007812 2.039062 2.007812 3.472656v56c0 1.425781-.753906 2.734375-1.984375 3.457031l-48 28c-.625.367188-1.320313.542969-2.015625.542969zm4-57.703125v46.742187l40-23.335937v-46.742187zm0 0"></path>
        <path d="m388 382-48-28" fill="#4db6ac"></path>
        <path d="m388 386c-.679688 0-1.375-.167969-2.007812-.542969l-48-28c-1.902344-1.113281-2.550782-3.5625-1.441407-5.472656 1.121094-1.90625 3.570313-2.558594 5.472657-1.441406l48 28c1.90625 1.113281 2.550781 3.5625 1.441406 5.472656-.753906 1.273437-2.097656 1.984375-3.464844 1.984375zm0 0"></path>
      </svg>